<svg width="24" height="121" viewBox="0 0 24 121" fill="none" xmlns="http://www.w3.org/2000/svg">
<path d="M21.513 18.7952C20.4283 18.7952 19.5244 19.6988 19.5244 20.7831C19.5244 21.8675 20.4283 22.7711 21.513 22.7711C22.5977 22.7711 23.5016 21.8675 23.5016 20.7831C23.3208 19.6988 22.4169 18.7952 21.513 18.7952Z" fill="#313842"/>
<path d="M12.1124 28.5542C11.9316 28.5542 11.9316 28.5542 11.7508 28.5542C11.57 28.5542 11.2085 28.5542 11.0277 28.7349C10.4853 28.9156 9.94299 29.4578 9.94299 30.1807C9.94299 30.3614 9.94299 30.3614 9.94299 30.5422C9.94299 31.265 10.4853 31.9879 11.2085 32.3494C11.3892 32.5301 11.7508 32.5301 11.9316 32.5301C12.1124 32.5301 12.1124 32.5301 12.2932 32.5301C13.1971 32.3494 13.9202 31.6265 13.9202 30.5422C13.9202 30.3614 13.9202 30.3614 13.9202 30.1807C13.3778 29.2771 12.8355 28.7349 12.1124 28.5542Z" fill="#313842"/>
<path d="M12.1124 9.03613C11.9316 9.03613 11.9316 9.03613 11.7508 9.03613C11.57 9.03613 11.2085 9.03613 11.0277 9.21686C10.3046 9.5783 9.76221 10.1205 9.76221 11.0241C9.76221 11.9277 10.3046 12.4699 11.0277 12.8313C11.2085 13.012 11.57 13.012 11.7508 13.012C11.9316 13.012 11.9316 13.012 12.1124 13.012C13.0163 12.8313 13.7394 12.1084 13.7394 11.0241C13.7394 9.93975 13.0163 9.21686 12.1124 9.03613Z" fill="#313842"/>
<path d="M21.513 57.6506C20.4283 57.6506 19.5244 58.5543 19.5244 59.6386C19.5244 60.7229 20.4283 61.6265 21.513 61.6265C22.5977 61.6265 23.5016 60.7229 23.5016 59.6386C23.3208 58.5543 22.4169 57.6506 21.513 57.6506Z" fill="#313842"/>
<path d="M21.513 38.3132C20.4283 38.3132 19.5244 39.2168 19.5244 40.3012C19.5244 41.3855 20.4283 42.2891 21.513 42.2891C22.5977 42.2891 23.5016 41.3855 23.5016 40.3012C23.3208 39.2168 22.4169 38.3132 21.513 38.3132Z" fill="#313842"/>
<path d="M12.1124 67.5903C11.9316 67.5903 11.9316 67.5903 11.7508 67.5903C11.57 67.5903 11.2085 67.5903 11.0277 67.7711C10.6661 67.9518 10.3046 68.1325 10.1238 68.4939C9.94299 68.8554 9.76221 69.2168 9.76221 69.5783C9.76221 69.759 9.7622 70.1204 9.94299 70.3012C10.1238 70.8433 10.4853 71.2048 11.0277 71.3855C11.2085 71.5662 11.57 71.5662 11.7508 71.5662C11.9316 71.5662 11.9316 71.5662 12.1124 71.5662C12.8355 71.3855 13.1971 71.0241 13.5586 70.4819C13.7394 70.3012 13.7394 69.9397 13.7394 69.759C13.7394 69.3976 13.5586 69.0361 13.3778 68.6747C13.0163 67.9518 12.6547 67.5903 12.1124 67.5903Z" fill="#313842"/>
<path d="M12.1124 48.0723C11.9316 48.0723 11.9316 48.0723 11.7508 48.0723C11.57 48.0723 11.2085 48.0723 11.0277 48.253C10.3046 48.6144 9.76221 49.1566 9.76221 50.0602C9.76221 50.7831 10.3046 51.506 11.0277 51.8674C11.2085 52.0482 11.57 52.0482 11.7508 52.0482C11.9316 52.0482 11.9316 52.0482 12.1124 52.0482C13.0163 51.8674 13.7394 51.1446 13.7394 50.0602C13.5586 48.9759 13.0163 48.253 12.1124 48.0723Z" fill="#313842"/>
<path d="M21.513 96.6868C20.4283 96.6868 19.5244 97.5904 19.5244 98.6747C19.5244 99.759 20.4283 100.663 21.513 100.663C22.5977 100.663 23.5016 99.759 23.5016 98.6747C23.3208 97.5904 22.4169 96.6868 21.513 96.6868Z" fill="#313842"/>
<path d="M21.513 77.1687C20.4283 77.1687 19.5244 78.0723 19.5244 79.1567C19.5244 80.241 20.4283 81.1446 21.513 81.1446C22.5977 81.1446 23.5016 80.241 23.5016 79.1567C23.3208 78.0723 22.4169 77.1687 21.513 77.1687Z" fill="#313842"/>
<path d="M13.0163 106.988C13.0163 106.988 12.8355 106.807 12.6547 106.807C12.4739 106.627 12.2932 106.627 11.9316 106.446C11.7508 106.446 11.7508 106.446 11.57 106.446C11.3892 106.446 11.3892 106.446 11.2085 106.446C11.0277 106.446 11.0277 106.446 10.8469 106.627C10.6661 106.627 10.6661 106.807 10.4853 106.807C10.3045 106.807 10.3046 106.988 10.1238 106.988C9.94299 107.169 9.58142 107.53 9.58142 107.892C9.58142 108.072 9.58142 108.072 9.58142 108.253C9.58142 108.976 10.1238 109.699 10.8469 110.06C11.0277 110.241 11.3892 110.241 11.57 110.241C11.7508 110.241 11.7508 110.241 11.9316 110.241C12.8355 110.06 13.5586 109.337 13.5586 108.253C13.5586 108.072 13.5586 108.072 13.5586 107.892C13.5586 107.53 13.3778 107.169 13.0163 106.988Z" fill="#313842"/>
<path d="M12.1124 86.9277C11.9316 86.9277 11.9316 86.9277 11.7508 86.9277C11.57 86.9277 11.2085 86.9277 11.0277 87.1085C10.3046 87.4699 9.76221 88.0121 9.76221 88.9157C9.76221 89.8193 10.3046 90.3615 11.0277 90.7229C11.2085 90.9036 11.57 90.9036 11.7508 90.9036C11.9316 90.9036 11.9316 90.9036 12.1124 90.9036C13.0163 90.7229 13.7394 90 13.7394 88.9157C13.5586 88.0121 13.0163 87.1085 12.1124 86.9277Z" fill="#313842"/>
<path d="M1.98861 18.7952C0.903915 18.7952 0 19.6988 0 20.7831C0 21.8675 0.903915 22.7711 1.98861 22.7711C3.0733 22.7711 3.97721 21.8675 3.97721 20.7831C3.97721 19.6988 3.0733 18.7952 1.98861 18.7952Z" fill="#313842"/>
<path d="M0.542345 0C0.180781 0.361446 0 0.722892 0 1.26506C0 2.3494 0.903915 3.25301 1.98861 3.25301C3.0733 3.25301 3.97721 2.3494 3.97721 1.26506C3.97721 0.903614 3.79643 0.542169 3.79643 0.361446C2.53095 0.180723 1.62704 0 0.542345 0Z" fill="#313842"/>
<path d="M1.98861 57.6506C0.903915 57.6506 0 58.5543 0 59.6386C0 60.7229 0.903915 61.6265 1.98861 61.6265C3.0733 61.6265 3.97721 60.7229 3.97721 59.6386C3.97721 58.5543 3.0733 57.6506 1.98861 57.6506Z" fill="#313842"/>
<path d="M1.98861 38.3132C0.903915 38.3132 0 39.2168 0 40.3012C0 41.3855 0.903915 42.2891 1.98861 42.2891C3.0733 42.2891 3.97721 41.3855 3.97721 40.3012C3.97721 39.2168 3.0733 38.3132 1.98861 38.3132Z" fill="#313842"/>
<path d="M1.98861 96.6868C0.903915 96.6868 0 97.5904 0 98.6747C0 99.759 0.903915 100.663 1.98861 100.663C3.0733 100.663 3.97721 99.759 3.97721 98.6747C3.97721 97.5904 3.0733 96.6868 1.98861 96.6868Z" fill="#313842"/>
<path d="M1.98861 77.1687C0.903915 77.1687 0 78.0723 0 79.1567C0 80.241 0.903915 81.1446 1.98861 81.1446C3.0733 81.1446 3.97721 80.241 3.97721 79.1567C3.97721 78.0723 3.0733 77.1687 1.98861 77.1687Z" fill="#313842"/>
<path d="M1.9886 116.205C0.903912 116.205 0 117.108 0 118.193C0 119.096 0.723129 120 1.62704 120.181C1.9886 120.181 2.35016 120 2.71172 120C3.43485 119.639 3.79642 119.096 3.79642 118.193C3.9772 116.928 3.07329 116.205 1.9886 116.205Z" fill="#313842"/>
</svg>
