<svg width="78" height="186" viewBox="0 0 78 186" fill="none" xmlns="http://www.w3.org/2000/svg">
<g clip-path="url(#clip0)">
<path d="M76.6075 105.045C76.0505 104.765 75.4935 104.485 74.9365 104.485C73.8225 104.485 72.987 105.045 72.43 105.886C72.1515 106.446 71.873 107.006 71.873 107.566C71.873 107.847 71.873 108.407 72.1515 108.687C72.7085 109.807 73.544 110.648 74.9365 110.648C75.4935 110.648 76.0505 110.368 76.6075 110.088C77.1645 109.807 77.443 109.247 77.7215 108.687C78 108.407 78 107.847 78 107.566C78 107.006 77.7215 106.446 77.443 105.886C77.1645 105.606 76.886 105.325 76.6075 105.045Z" fill="#5046CF"/>
<path d="M44.8583 44.2592C43.4658 44.2592 42.0733 45.3796 41.7948 46.7802C41.7948 47.0604 41.7948 47.0604 41.7948 47.3405C41.7948 49.0212 43.1873 50.4218 44.8583 50.4218C46.5293 50.4218 47.9218 49.0212 47.9218 47.3405C47.9218 47.0604 47.9218 47.0604 47.9218 46.7802C47.6433 45.3796 46.5293 44.2592 44.8583 44.2592Z" fill="#5046CF"/>
<path d="M44.8583 20.1686C45.6938 20.1686 46.2508 19.8885 46.8078 19.3282C45.1368 18.2078 43.7443 17.0873 42.0733 15.9668C41.7948 16.2469 41.7948 16.8072 41.7948 17.0873C42.0733 18.768 43.1873 20.1686 44.8583 20.1686Z" fill="#5046CF"/>
<path d="M30.0977 29.1326C28.4267 29.1326 27.0342 30.5332 27.0342 32.2139C27.0342 33.8946 28.4267 35.2952 30.0977 35.2952C31.7687 35.2952 33.1612 33.8946 33.1612 32.2139C32.8827 30.5332 31.4902 29.1326 30.0977 29.1326Z" fill="#5046CF"/>
<path d="M59.8974 35.2951C60.7329 35.2951 61.5684 35.0149 62.1254 34.4547C60.7329 32.774 59.6189 31.3734 58.2264 29.9728C57.3909 30.533 57.1124 31.3734 57.1124 32.4939C56.8339 33.8945 58.2264 35.2951 59.8974 35.2951Z" fill="#5046CF"/>
<path d="M15.6156 44.2592C15.3371 44.2592 15.3371 44.2592 15.0586 44.2592C14.7801 44.2592 14.2231 44.2592 13.9446 44.5393C13.1091 44.8194 12.2736 45.6598 12.2736 46.7802C12.2736 47.0604 12.2736 47.0604 12.2736 47.3405C12.2736 48.461 13.1091 49.5814 14.2231 50.1417C14.5016 50.4218 15.0586 50.4218 15.3371 50.4218C15.6156 50.4218 15.6156 50.4218 15.8941 50.4218C17.2866 50.1417 18.4007 49.0212 18.4007 47.3405C18.4007 47.0604 18.4007 47.0604 18.4007 46.7802C17.5652 45.3796 16.7296 44.5393 15.6156 44.2592Z" fill="#5046CF"/>
<path d="M15.6156 14.006C15.3371 14.006 15.3371 14.006 15.0586 14.006C14.7801 14.006 14.2231 14.006 13.9446 14.2861C12.8306 14.8463 11.9951 15.6867 11.9951 17.0873C11.9951 18.4879 12.8306 19.3283 13.9446 19.8885C14.2231 20.1686 14.7801 20.1686 15.0586 20.1686C15.3371 20.1686 15.3371 20.1686 15.6156 20.1686C17.0081 19.8885 18.1221 18.768 18.1221 17.0873C18.1221 15.4066 17.0081 14.2861 15.6156 14.006Z" fill="#5046CF"/>
<path d="M44.8583 104.485C43.7443 104.485 42.9088 105.045 42.3518 105.886C42.0733 106.446 41.7948 107.006 41.7948 107.566C41.7948 107.847 41.7948 108.407 42.0733 108.687C42.6303 109.807 43.4658 110.648 44.8583 110.648C45.9723 110.648 47.0863 109.807 47.6433 108.687C47.9218 108.407 47.9218 107.847 47.9218 107.566C47.9218 107.006 47.6433 106.446 47.3648 105.886C46.8078 105.045 45.9723 104.485 44.8583 104.485Z" fill="#5046CF"/>
<path d="M74.9365 80.3946C75.4935 80.3946 76.0505 80.1145 76.6075 79.8343C77.443 79.2741 78 78.4337 78 77.3133C78 76.1928 77.443 75.3524 76.6075 74.7922C76.0505 74.5121 75.4935 74.2319 74.9365 74.2319C73.2655 74.2319 71.873 75.6325 71.873 77.3133C71.873 78.994 73.2655 80.3946 74.9365 80.3946Z" fill="#5046CF"/>
<path d="M44.8583 74.512C43.1873 74.512 41.7948 75.9126 41.7948 77.5933C41.7948 79.274 43.1873 80.6746 44.8583 80.6746C46.5293 80.6746 47.9218 79.274 47.9218 77.5933C47.9218 75.9126 46.5293 74.512 44.8583 74.512Z" fill="#5046CF"/>
<path d="M30.0977 89.3585C28.4267 89.3585 27.0342 90.7591 27.0342 92.4398C27.0342 94.1206 28.4267 95.5212 30.0977 95.5212C31.7687 95.5212 33.1612 94.1206 33.1612 92.4398C32.8827 90.7591 31.4902 89.3585 30.0977 89.3585Z" fill="#5046CF"/>
<path d="M59.8974 89.3585C58.2264 89.3585 56.8339 90.7591 56.8339 92.4398C56.8339 94.1206 58.2264 95.5212 59.8974 95.5212C61.5684 95.5212 62.9609 94.1206 62.9609 92.4398C62.9609 90.7591 61.5684 89.3585 59.8974 89.3585Z" fill="#5046CF"/>
<path d="M30.0977 59.3854C28.4267 59.3854 27.0342 60.786 27.0342 62.4667C27.0342 64.1474 28.4267 65.548 30.0977 65.548C31.7687 65.548 33.1612 64.1474 33.1612 62.4667C32.8827 60.786 31.4902 59.3854 30.0977 59.3854Z" fill="#5046CF"/>
<path d="M59.8974 59.3854C58.2264 59.3854 56.8339 60.786 56.8339 62.4667C56.8339 64.1474 58.2264 65.548 59.8974 65.548C61.5684 65.548 62.9609 64.1474 62.9609 62.4667C62.9609 60.786 61.5684 59.3854 59.8974 59.3854Z" fill="#5046CF"/>
<path d="M15.6156 104.765C15.3371 104.765 15.3371 104.765 15.0586 104.765C14.7801 104.765 14.2231 104.765 13.9446 105.045C13.3876 105.325 12.8306 105.605 12.5521 106.166C12.2736 106.726 11.9951 107.286 11.9951 107.846C11.9951 108.127 11.9951 108.687 12.2736 108.967C12.5521 109.807 13.1091 110.368 13.9446 110.648C14.2231 110.928 14.7801 110.928 15.0586 110.928C15.3371 110.928 15.3371 110.928 15.6156 110.928C16.7296 110.648 17.2866 110.087 17.8436 109.247C18.1221 108.967 18.1221 108.407 18.1221 108.127C18.1221 107.566 17.8436 107.006 17.5651 106.446C17.0081 105.325 16.4511 104.765 15.6156 104.765Z" fill="#5046CF"/>
<path d="M15.6156 74.512C15.3371 74.512 15.3371 74.512 15.0586 74.512C14.7801 74.512 14.2231 74.512 13.9446 74.7921C12.8306 75.3523 11.9951 76.1927 11.9951 77.5933C11.9951 78.7138 12.8306 79.8342 13.9446 80.3945C14.2231 80.6746 14.7801 80.6746 15.0586 80.6746C15.3371 80.6746 15.3371 80.6746 15.6156 80.6746C17.0081 80.3945 18.1221 79.274 18.1221 77.5933C17.8436 75.9126 17.0081 74.7921 15.6156 74.512Z" fill="#5046CF"/>
<path d="M46.5293 165.551C46.2508 165.271 45.9723 165.271 45.4153 164.991C45.1368 164.991 45.1368 164.991 44.8583 164.991C44.5798 164.991 44.5798 164.991 44.3013 164.991C44.0228 164.991 43.4658 165.271 43.1873 165.551C42.9088 165.551 42.9088 165.831 42.6303 165.831C42.3518 166.111 41.7948 166.672 41.7948 167.232C41.7948 167.512 41.7948 167.512 41.7948 167.792C41.7948 168.633 42.0733 169.193 42.6303 169.753C43.4658 169.193 44.5798 168.352 45.4153 167.792C45.9723 167.232 46.8078 166.672 47.3648 166.111C47.3648 165.831 47.0863 165.831 47.0863 165.551C46.8078 165.551 46.8078 165.551 46.5293 165.551Z" fill="#5046CF"/>
<path d="M44.8583 134.738C43.1873 134.738 41.7948 136.139 41.7948 137.819C41.7948 139.5 43.1873 140.901 44.8583 140.901C46.5293 140.901 47.9218 139.5 47.9218 137.819C47.9218 136.139 46.5293 134.738 44.8583 134.738Z" fill="#5046CF"/>
<path d="M30.0977 149.865C28.4267 149.865 27.0342 151.265 27.0342 152.946C27.0342 154.627 28.4267 156.027 30.0977 156.027C31.7687 156.027 33.1612 154.627 33.1612 152.946C32.8827 151.265 31.4902 149.865 30.0977 149.865Z" fill="#5046CF"/>
<path d="M59.8974 149.865C58.2264 149.865 56.8339 151.265 56.8339 152.946C56.8339 154.346 57.6694 155.187 58.7834 155.747C60.1759 154.346 61.2899 152.946 62.4039 151.265C62.1254 150.425 61.0114 149.865 59.8974 149.865Z" fill="#5046CF"/>
<path d="M30.0977 119.611C28.4267 119.611 27.0342 121.012 27.0342 122.693C27.0342 124.373 28.4267 125.774 30.0977 125.774C31.7687 125.774 33.1612 124.373 33.1612 122.693C32.8827 121.012 31.4902 119.611 30.0977 119.611Z" fill="#5046CF"/>
<path d="M59.8974 119.611C58.2264 119.611 56.8339 121.012 56.8339 122.693C56.8339 124.373 58.2264 125.774 59.8974 125.774C61.5684 125.774 62.9609 124.373 62.9609 122.693C62.9609 121.012 61.5684 119.611 59.8974 119.611Z" fill="#5046CF"/>
<path d="M17.0081 165.831C17.0081 165.831 16.7296 165.551 16.4511 165.551C16.1726 165.271 15.8941 165.271 15.3371 164.991C15.0586 164.991 15.0586 164.991 14.7801 164.991C14.5016 164.991 14.5016 164.991 14.2231 164.991C13.9446 164.991 13.9446 164.991 13.6661 165.271C13.3876 165.271 13.3876 165.551 13.1091 165.551C12.8306 165.551 12.8306 165.831 12.5521 165.831C12.2736 166.111 11.7166 166.672 11.7166 167.232C11.7166 167.512 11.7166 167.512 11.7166 167.792C11.7166 168.913 12.5521 170.033 13.6661 170.593C13.9446 170.874 14.5016 170.874 14.7801 170.874C15.0586 170.874 15.0586 170.874 15.3371 170.874C16.7296 170.593 17.8436 169.473 17.8436 167.792C17.8436 167.512 17.8436 167.512 17.8436 167.232C17.8436 166.672 17.5651 166.111 17.0081 165.831Z" fill="#5046CF"/>
<path d="M15.6156 134.738C15.3371 134.738 15.3371 134.738 15.0586 134.738C14.7801 134.738 14.2231 134.738 13.9446 135.018C12.8306 135.578 11.9951 136.419 11.9951 137.819C11.9951 139.22 12.8306 140.06 13.9446 140.62C14.2231 140.901 14.7801 140.901 15.0586 140.901C15.3371 140.901 15.3371 140.901 15.6156 140.901C17.0081 140.62 18.1221 139.5 18.1221 137.819C17.8436 136.419 17.0081 135.018 15.6156 134.738Z" fill="#5046CF"/>
<path d="M0.019552 29.1326C-1.65146 29.1326 -3.04398 30.5332 -3.04398 32.2139C-3.04398 33.8946 -1.65146 35.2952 0.019552 35.2952C1.69056 35.2952 3.08307 33.8946 3.08307 32.2139C3.08307 30.5332 1.69056 29.1326 0.019552 29.1326Z" fill="#5046CF"/>
<path d="M-2.20847 0C-2.76548 0.560241 -3.04398 1.12048 -3.04398 1.96084C-3.04398 3.64157 -1.65146 5.04217 0.019552 5.04217C1.69056 5.04217 3.08307 3.64157 3.08307 1.96084C3.08307 1.4006 2.80457 0.840361 2.80457 0.560241C0.855058 0.28012 -0.53746 0 -2.20847 0Z" fill="#5046CF"/>
<path d="M0.019552 89.3585C-1.65146 89.3585 -3.04398 90.7591 -3.04398 92.4398C-3.04398 94.1206 -1.65146 95.5212 0.019552 95.5212C1.69056 95.5212 3.08307 94.1206 3.08307 92.4398C3.08307 90.7591 1.69056 89.3585 0.019552 89.3585Z" fill="#5046CF"/>
<path d="M0.019552 59.3854C-1.65146 59.3854 -3.04398 60.786 -3.04398 62.4667C-3.04398 64.1474 -1.65146 65.548 0.019552 65.548C1.69056 65.548 3.08307 64.1474 3.08307 62.4667C3.08307 60.786 1.69056 59.3854 0.019552 59.3854Z" fill="#5046CF"/>
<path d="M0.019552 149.865C-1.65146 149.865 -3.04398 151.265 -3.04398 152.946C-3.04398 154.627 -1.65146 156.027 0.019552 156.027C1.69056 156.027 3.08307 154.627 3.08307 152.946C3.08307 151.265 1.69056 149.865 0.019552 149.865Z" fill="#5046CF"/>
<path d="M0.019552 119.611C-1.65146 119.611 -3.04398 121.012 -3.04398 122.693C-3.04398 124.373 -1.65146 125.774 0.019552 125.774C1.69056 125.774 3.08307 124.373 3.08307 122.693C3.08307 121.012 1.69056 119.611 0.019552 119.611Z" fill="#5046CF"/>
<path d="M0.019547 180.118C-1.65146 180.118 -3.04398 181.518 -3.04398 183.199C-3.04398 184.6 -1.92997 186 -0.537458 186.28C0.0195448 186.28 0.576544 186 1.13355 186C2.24755 185.44 2.80456 184.6 2.80456 183.199C3.08306 181.238 1.69056 180.118 0.019547 180.118Z" fill="#5046CF"/>
</g>
<defs>
<clipPath id="clip0">
<rect width="171" height="186" fill="white" transform="translate(-93)"/>
</clipPath>
</defs>
</svg>
