<svg width="63" height="121" viewBox="0 0 63 121" fill="none" xmlns="http://www.w3.org/2000/svg">
<path d="M51.7036 67.7711C51.342 67.5904 50.9805 67.4097 50.6189 67.4097C49.8958 67.4097 49.3534 67.7711 48.9919 68.3133C48.8111 68.6747 48.6303 69.0362 48.6303 69.3976C48.6303 69.5783 48.6303 69.9398 48.8111 70.1205C49.1726 70.8434 49.715 71.3856 50.6189 71.3856C50.9805 71.3856 51.342 71.2048 51.7036 71.0241C52.0651 70.8434 52.2459 70.482 52.4267 70.1205C52.6075 69.9398 52.6075 69.5783 52.6075 69.3976C52.6075 69.0362 52.4267 68.6747 52.2459 68.3133C52.0651 68.1326 51.8844 67.9518 51.7036 67.7711Z" fill="#313842"/>
<path d="M31.0944 28.5542C30.1905 28.5542 29.2866 29.2771 29.1058 30.1807C29.1058 30.3614 29.1058 30.3614 29.1058 30.5422C29.1058 31.6265 30.0097 32.5301 31.0944 32.5301C32.1791 32.5301 33.083 31.6265 33.083 30.5422C33.083 30.3614 33.083 30.3614 33.083 30.1807C32.9022 29.2771 32.1791 28.5542 31.0944 28.5542Z" fill="#313842"/>
<path d="M21.513 18.7952C20.4283 18.7952 19.5244 19.6988 19.5244 20.7831C19.5244 21.8675 20.4283 22.7711 21.513 22.7711C22.5977 22.7711 23.5016 21.8675 23.5016 20.7831C23.3208 19.6988 22.4169 18.7952 21.513 18.7952Z" fill="#313842"/>
<path d="M12.1124 28.5542C11.9316 28.5542 11.9316 28.5542 11.7508 28.5542C11.57 28.5542 11.2085 28.5542 11.0277 28.7349C10.4853 28.9156 9.94299 29.4578 9.94299 30.1807C9.94299 30.3614 9.94299 30.3614 9.94299 30.5422C9.94299 31.265 10.4853 31.9879 11.2085 32.3494C11.3892 32.5301 11.7508 32.5301 11.9316 32.5301C12.1124 32.5301 12.1124 32.5301 12.2932 32.5301C13.1971 32.3494 13.9202 31.6265 13.9202 30.5422C13.9202 30.3614 13.9202 30.3614 13.9202 30.1807C13.3778 29.2771 12.8355 28.7349 12.1124 28.5542Z" fill="#313842"/>
<path d="M12.1124 9.03613C11.9316 9.03613 11.9316 9.03613 11.7508 9.03613C11.57 9.03613 11.2085 9.03613 11.0277 9.21686C10.3046 9.5783 9.76221 10.1205 9.76221 11.0241C9.76221 11.9277 10.3046 12.4699 11.0277 12.8313C11.2085 13.012 11.57 13.012 11.7508 13.012C11.9316 13.012 11.9316 13.012 12.1124 13.012C13.0163 12.8313 13.7394 12.1084 13.7394 11.0241C13.7394 9.93975 13.0163 9.21686 12.1124 9.03613Z" fill="#313842"/>
<path d="M31.0944 67.4097C30.3713 67.4097 29.829 67.7711 29.4674 68.3133C29.2866 68.6747 29.1058 69.0362 29.1058 69.3976C29.1058 69.5783 29.1058 69.9398 29.2866 70.1205C29.6482 70.8434 30.1905 71.3856 31.0944 71.3856C31.8176 71.3856 32.5407 70.8434 32.9022 70.1205C33.083 69.9398 33.083 69.5783 33.083 69.3976C33.083 69.0362 32.9022 68.6747 32.7215 68.3133C32.3599 67.7711 31.8176 67.4097 31.0944 67.4097Z" fill="#313842"/>
<path d="M50.6189 51.8675C50.9805 51.8675 51.342 51.6868 51.7036 51.5061C52.2459 51.1446 52.6075 50.6024 52.6075 49.8796C52.6075 49.1567 52.2459 48.6145 51.7036 48.253C51.342 48.0723 50.9805 47.8916 50.6189 47.8916C49.5342 47.8916 48.6303 48.7952 48.6303 49.8796C48.6303 50.9639 49.5342 51.8675 50.6189 51.8675Z" fill="#313842"/>
<path d="M31.0944 48.0723C30.0097 48.0723 29.1058 48.9759 29.1058 50.0602C29.1058 51.1446 30.0097 52.0482 31.0944 52.0482C32.1791 52.0482 33.083 51.1446 33.083 50.0602C33.083 48.9759 32.1791 48.0723 31.0944 48.0723Z" fill="#313842"/>
<path d="M21.513 57.6506C20.4283 57.6506 19.5244 58.5543 19.5244 59.6386C19.5244 60.7229 20.4283 61.6265 21.513 61.6265C22.5977 61.6265 23.5016 60.7229 23.5016 59.6386C23.3208 58.5543 22.4169 57.6506 21.513 57.6506Z" fill="#313842"/>
<path d="M40.8566 57.6506C39.772 57.6506 38.868 58.5543 38.868 59.6386C38.868 60.7229 39.772 61.6265 40.8566 61.6265C41.9413 61.6265 42.8452 60.7229 42.8452 59.6386C42.8452 58.5543 41.9413 57.6506 40.8566 57.6506Z" fill="#313842"/>
<path d="M21.513 38.3132C20.4283 38.3132 19.5244 39.2168 19.5244 40.3012C19.5244 41.3855 20.4283 42.2891 21.513 42.2891C22.5977 42.2891 23.5016 41.3855 23.5016 40.3012C23.3208 39.2168 22.4169 38.3132 21.513 38.3132Z" fill="#313842"/>
<path d="M40.8566 38.3132C39.772 38.3132 38.868 39.2168 38.868 40.3012C38.868 41.3855 39.772 42.2891 40.8566 42.2891C41.9413 42.2891 42.8452 41.3855 42.8452 40.3012C42.8452 39.2168 41.9413 38.3132 40.8566 38.3132Z" fill="#313842"/>
<path d="M12.1124 67.5903C11.9316 67.5903 11.9316 67.5903 11.7508 67.5903C11.57 67.5903 11.2085 67.5903 11.0277 67.7711C10.6661 67.9518 10.3046 68.1325 10.1238 68.4939C9.94299 68.8554 9.76221 69.2168 9.76221 69.5783C9.76221 69.759 9.7622 70.1204 9.94299 70.3012C10.1238 70.8433 10.4853 71.2048 11.0277 71.3855C11.2085 71.5662 11.57 71.5662 11.7508 71.5662C11.9316 71.5662 11.9316 71.5662 12.1124 71.5662C12.8355 71.3855 13.1971 71.0241 13.5586 70.4819C13.7394 70.3012 13.7394 69.9397 13.7394 69.759C13.7394 69.3976 13.5586 69.0361 13.3778 68.6747C13.0163 67.9518 12.6547 67.5903 12.1124 67.5903Z" fill="#313842"/>
<path d="M12.1124 48.0723C11.9316 48.0723 11.9316 48.0723 11.7508 48.0723C11.57 48.0723 11.2085 48.0723 11.0277 48.253C10.3046 48.6144 9.76221 49.1566 9.76221 50.0602C9.76221 50.7831 10.3046 51.506 11.0277 51.8674C11.2085 52.0482 11.57 52.0482 11.7508 52.0482C11.9316 52.0482 11.9316 52.0482 12.1124 52.0482C13.0163 51.8674 13.7394 51.1446 13.7394 50.0602C13.5586 48.9759 13.0163 48.253 12.1124 48.0723Z" fill="#313842"/>
<path d="M31.0944 86.9277C30.0097 86.9277 29.1058 87.8314 29.1058 88.9157C29.1058 90 30.0097 90.9036 31.0944 90.9036C32.1791 90.9036 33.083 90 33.083 88.9157C33.083 87.8314 32.1791 86.9277 31.0944 86.9277Z" fill="#313842"/>
<path d="M21.513 96.6865C20.4283 96.6865 19.5244 97.5901 19.5244 98.6745C19.5244 99.7588 20.4283 100.662 21.513 100.662C22.5977 100.662 23.5016 99.7588 23.5016 98.6745C23.3208 97.5901 22.4169 96.6865 21.513 96.6865Z" fill="#313842"/>
<path d="M21.513 77.1689C20.4283 77.1689 19.5244 78.0726 19.5244 79.1569C19.5244 80.2412 20.4283 81.1449 21.513 81.1449C22.5977 81.1449 23.5016 80.2412 23.5016 79.1569C23.3208 78.0726 22.4169 77.1689 21.513 77.1689Z" fill="#313842"/>
<path d="M40.8566 77.1689C39.772 77.1689 38.868 78.0726 38.868 79.1569C38.868 80.2412 39.772 81.1449 40.8566 81.1449C41.9413 81.1449 42.8452 80.2412 42.8452 79.1569C42.8452 78.0726 41.9413 77.1689 40.8566 77.1689Z" fill="#313842"/>
<path d="M13.0163 106.988C13.0163 106.988 12.8355 106.807 12.6547 106.807C12.4739 106.627 12.2932 106.627 11.9316 106.446C11.7508 106.446 11.7508 106.446 11.57 106.446C11.3892 106.446 11.3892 106.446 11.2085 106.446C11.0277 106.446 11.0277 106.446 10.8469 106.627C10.6661 106.627 10.6661 106.807 10.4853 106.807C10.3045 106.807 10.3046 106.988 10.1238 106.988C9.94299 107.169 9.58142 107.53 9.58142 107.892C9.58142 108.072 9.58142 108.072 9.58142 108.253C9.58142 108.976 10.1238 109.699 10.8469 110.06C11.0277 110.241 11.3892 110.241 11.57 110.241C11.7508 110.241 11.7508 110.241 11.9316 110.241C12.8355 110.06 13.5586 109.337 13.5586 108.253C13.5586 108.072 13.5586 108.072 13.5586 107.892C13.5586 107.53 13.3778 107.169 13.0163 106.988Z" fill="#313842"/>
<path d="M12.1124 86.9277C11.9316 86.9277 11.9316 86.9277 11.7508 86.9277C11.57 86.9277 11.2085 86.9277 11.0277 87.1085C10.3046 87.4699 9.76221 88.0121 9.76221 88.9157C9.76221 89.8193 10.3046 90.3615 11.0277 90.7229C11.2085 90.9036 11.57 90.9036 11.7508 90.9036C11.9316 90.9036 11.9316 90.9036 12.1124 90.9036C13.0163 90.7229 13.7394 90 13.7394 88.9157C13.5586 88.0121 13.0163 87.1085 12.1124 86.9277Z" fill="#313842"/>
<path d="M1.98861 18.7952C0.903915 18.7952 0 19.6988 0 20.7831C0 21.8675 0.903915 22.7711 1.98861 22.7711C3.0733 22.7711 3.97721 21.8675 3.97721 20.7831C3.97721 19.6988 3.0733 18.7952 1.98861 18.7952Z" fill="#313842"/>
<path d="M0.542345 0C0.180781 0.361446 0 0.722892 0 1.26506C0 2.3494 0.903915 3.25301 1.98861 3.25301C3.0733 3.25301 3.97721 2.3494 3.97721 1.26506C3.97721 0.903614 3.79643 0.542169 3.79643 0.361446C2.53095 0.180723 1.62704 0 0.542345 0Z" fill="#313842"/>
<path d="M1.98861 57.6506C0.903915 57.6506 0 58.5543 0 59.6386C0 60.7229 0.903915 61.6265 1.98861 61.6265C3.0733 61.6265 3.97721 60.7229 3.97721 59.6386C3.97721 58.5543 3.0733 57.6506 1.98861 57.6506Z" fill="#313842"/>
<path d="M1.98861 38.3132C0.903915 38.3132 0 39.2168 0 40.3012C0 41.3855 0.903915 42.2891 1.98861 42.2891C3.0733 42.2891 3.97721 41.3855 3.97721 40.3012C3.97721 39.2168 3.0733 38.3132 1.98861 38.3132Z" fill="#313842"/>
<path d="M1.98861 96.6865C0.903915 96.6865 0 97.5901 0 98.6745C0 99.7588 0.903915 100.662 1.98861 100.662C3.0733 100.662 3.97721 99.7588 3.97721 98.6745C3.97721 97.5901 3.0733 96.6865 1.98861 96.6865Z" fill="#313842"/>
<path d="M1.98861 77.1689C0.903915 77.1689 0 78.0726 0 79.1569C0 80.2412 0.903915 81.1449 1.98861 81.1449C3.0733 81.1449 3.97721 80.2412 3.97721 79.1569C3.97721 78.0726 3.0733 77.1689 1.98861 77.1689Z" fill="#313842"/>
<path d="M1.9886 116.205C0.903912 116.205 0 117.109 0 118.193C0 119.097 0.723129 120 1.62704 120.181C1.9886 120.181 2.35016 120 2.71172 120C3.43485 119.639 3.79642 119.097 3.79642 118.193C3.9772 116.928 3.07329 116.205 1.9886 116.205Z" fill="#313842"/>
<path d="M60.5961 57.6506C59.5114 57.6506 58.6075 58.5543 58.6075 59.6386C58.6075 60.7229 59.5114 61.6265 60.5961 61.6265C61.6808 61.6265 62.5847 60.7229 62.5847 59.6386C62.5847 58.5543 61.6808 57.6506 60.5961 57.6506Z" fill="#313842"/>
</svg>
