<svg width="1440" height="26" viewBox="0 0 1440 26" fill="none" xmlns="http://www.w3.org/2000/svg">
<path fill-rule="evenodd" clip-rule="evenodd" d="M118.011 10C118.011 7.79 116.219 6 114.007 6C110.689 6 108 3.314 108 0H110.002C110.002 2.21 111.794 4 114.007 4C117.325 4 120.014 6.686 120.014 10C120.014 12.21 121.806 14 124.018 14C127.336 14 130.025 16.686 130.025 20C130.025 22.21 131.817 24 134.03 24V26C130.712 26 128.023 23.314 128.023 20C128.023 17.79 126.231 16 124.018 16C120.7 16 118.011 13.314 118.011 10ZM143.504 8.05L152 16.536L150.584 17.95L142.089 9.464L143.504 8.05Z" fill="#313842"/>
<path fill-rule="evenodd" clip-rule="evenodd" d="M252.011 10C252.011 7.79 250.219 6 248.007 6C244.689 6 242 3.314 242 0H244.002C244.002 2.21 245.794 4 248.007 4C251.325 4 254.014 6.686 254.014 10C254.014 12.21 255.806 14 258.018 14C261.336 14 264.025 16.686 264.025 20C264.025 22.21 265.817 24 268.03 24V26C264.712 26 262.023 23.314 262.023 20C262.023 17.79 260.231 16 258.018 16C254.7 16 252.011 13.314 252.011 10ZM277.504 8.05L286 16.536L284.584 17.95L276.089 9.464L277.504 8.05Z" fill="#313842"/>
<path fill-rule="evenodd" clip-rule="evenodd" d="M164.011 10C164.011 7.79 162.219 6 160.007 6C156.689 6 154 3.314 154 0H156.002C156.002 2.21 157.794 4 160.007 4C163.325 4 166.014 6.686 166.014 10C166.014 12.21 167.806 14 170.018 14C173.336 14 176.025 16.686 176.025 20C176.025 22.21 177.817 24 180.03 24V26C176.712 26 174.023 23.314 174.023 20C174.023 17.79 172.231 16 170.018 16C166.7 16 164.011 13.314 164.011 10ZM189.504 8.05L198 16.536L196.584 17.95L188.089 9.464L189.504 8.05Z" fill="#313842"/>
<path fill-rule="evenodd" clip-rule="evenodd" d="M298.011 10C298.011 7.79 296.219 6 294.007 6C290.689 6 288 3.314 288 0H290.002C290.002 2.21 291.794 4 294.007 4C297.325 4 300.014 6.686 300.014 10C300.014 12.21 301.806 14 304.018 14C307.336 14 310.025 16.686 310.025 20C310.025 22.21 311.817 24 314.03 24V26C310.712 26 308.023 23.314 308.023 20C308.023 17.79 306.231 16 304.018 16C300.7 16 298.011 13.314 298.011 10ZM323.504 8.05L332 16.536L330.584 17.95L322.089 9.464L323.504 8.05Z" fill="#313842"/>
<path fill-rule="evenodd" clip-rule="evenodd" d="M208.011 10C208.011 7.79 206.219 6 204.007 6C200.689 6 198 3.314 198 0H200.002C200.002 2.21 201.794 4 204.007 4C207.325 4 210.014 6.686 210.014 10C210.014 12.21 211.806 14 214.018 14C217.336 14 220.025 16.686 220.025 20C220.025 22.21 221.817 24 224.03 24V26C220.712 26 218.023 23.314 218.023 20C218.023 17.79 216.231 16 214.018 16C210.7 16 208.011 13.314 208.011 10ZM233.504 8.05L242 16.536L240.584 17.95L232.089 9.464L233.504 8.05Z" fill="#313842"/>
<path fill-rule="evenodd" clip-rule="evenodd" d="M342.011 10C342.011 7.79 340.219 6 338.007 6C334.689 6 332 3.314 332 0H334.002C334.002 2.21 335.794 4 338.007 4C341.325 4 344.014 6.686 344.014 10C344.014 12.21 345.806 14 348.018 14C351.336 14 354.025 16.686 354.025 20C354.025 22.21 355.817 24 358.03 24V26C354.712 26 352.023 23.314 352.023 20C352.023 17.79 350.231 16 348.018 16C344.7 16 342.011 13.314 342.011 10ZM367.504 8.05L376 16.536L374.584 17.95L366.089 9.464L367.504 8.05Z" fill="#313842"/>
<path fill-rule="evenodd" clip-rule="evenodd" d="M386.011 10C386.011 7.79 384.219 6 382.007 6C378.689 6 376 3.314 376 0H378.002C378.002 2.21 379.794 4 382.007 4C385.325 4 388.014 6.686 388.014 10C388.014 12.21 389.806 14 392.018 14C395.336 14 398.025 16.686 398.025 20C398.025 22.21 399.817 24 402.03 24V26C398.712 26 396.023 23.314 396.023 20C396.023 17.79 394.231 16 392.018 16C388.7 16 386.011 13.314 386.011 10ZM411.504 8.05L420 16.536L418.584 17.95L410.089 9.464L411.504 8.05Z" fill="#313842"/>
<path fill-rule="evenodd" clip-rule="evenodd" d="M430.011 10C430.011 7.79 428.219 6 426.007 6C422.689 6 420 3.314 420 0H422.002C422.002 2.21 423.794 4 426.007 4C429.325 4 432.014 6.686 432.014 10C432.014 12.21 433.806 14 436.018 14C439.336 14 442.025 16.686 442.025 20C442.025 22.21 443.817 24 446.03 24V26C442.712 26 440.023 23.314 440.023 20C440.023 17.79 438.231 16 436.018 16C432.7 16 430.011 13.314 430.011 10ZM455.504 8.05L464 16.536L462.584 17.95L454.089 9.464L455.504 8.05Z" fill="#313842"/>
<path fill-rule="evenodd" clip-rule="evenodd" d="M474.011 10C474.011 7.79 472.219 6 470.007 6C466.689 6 464 3.314 464 0H466.002C466.002 2.21 467.794 4 470.007 4C473.325 4 476.014 6.686 476.014 10C476.014 12.21 477.806 14 480.018 14C483.336 14 486.025 16.686 486.025 20C486.025 22.21 487.817 24 490.03 24V26C486.712 26 484.023 23.314 484.023 20C484.023 17.79 482.231 16 480.018 16C476.7 16 474.011 13.314 474.011 10ZM499.504 8.05L508 16.536L506.584 17.95L498.089 9.464L499.504 8.05Z" fill="#313842"/>
<path fill-rule="evenodd" clip-rule="evenodd" d="M-13.9886 10C-13.9886 7.79 -15.7807 6 -17.9932 6C-21.3109 6 -24 3.314 -24 0H-21.9977C-21.9977 2.21 -20.2057 4 -17.9932 4C-14.6754 4 -11.9863 6.686 -11.9863 10C-11.9863 12.21 -10.1943 14 -7.9818 14C-4.664 14 -1.975 16.686 -1.975 20C-1.975 22.21 -0.182899 24 2.0296 24V26C-1.2882 26 -3.9772 23.314 -3.9772 20C-3.9772 17.79 -5.7693 16 -7.9818 16C-11.2996 16 -13.9886 13.314 -13.9886 10ZM11.5043 8.05L20 16.536L18.5844 17.95L10.0887 9.464L11.5043 8.05Z" fill="#313842"/>
<path fill-rule="evenodd" clip-rule="evenodd" d="M30.0114 10C30.0114 7.79 28.2193 6 26.0068 6C22.6891 6 20 3.314 20 0H22.0023C22.0023 2.21 23.7943 4 26.0068 4C29.3246 4 32.0137 6.686 32.0137 10C32.0137 12.21 33.8057 14 36.0182 14C39.336 14 42.025 16.686 42.025 20C42.025 22.21 43.8171 24 46.0296 24V26C42.7118 26 40.0228 23.314 40.0228 20C40.0228 17.79 38.2307 16 36.0182 16C32.7004 16 30.0114 13.314 30.0114 10ZM55.5043 8.05L64 16.536L62.5844 17.95L54.0887 9.464L55.5043 8.05Z" fill="#313842"/>
<path fill-rule="evenodd" clip-rule="evenodd" d="M74.0114 10C74.0114 7.79 72.2193 6 70.0068 6C66.6891 6 64 3.314 64 0H66.0023C66.0023 2.21 67.7943 4 70.0068 4C73.3246 4 76.0137 6.686 76.0137 10C76.0137 12.21 77.8057 14 80.0182 14C83.336 14 86.025 16.686 86.025 20C86.025 22.21 87.8171 24 90.0296 24V26C86.7118 26 84.0228 23.314 84.0228 20C84.0228 17.79 82.2307 16 80.0182 16C76.7004 16 74.0114 13.314 74.0114 10ZM99.5043 8.05L108 16.536L106.584 17.95L98.0887 9.464L99.5043 8.05Z" fill="#313842"/>
<path fill-rule="evenodd" clip-rule="evenodd" d="M518.011 10C518.011 7.79 516.219 6 514.007 6C510.689 6 508 3.314 508 0H510.002C510.002 2.21 511.794 4 514.007 4C517.325 4 520.014 6.686 520.014 10C520.014 12.21 521.806 14 524.018 14C527.336 14 530.025 16.686 530.025 20C530.025 22.21 531.817 24 534.03 24V26C530.712 26 528.023 23.314 528.023 20C528.023 17.79 526.231 16 524.018 16C520.7 16 518.011 13.314 518.011 10ZM543.504 8.05L552 16.536L550.584 17.95L542.089 9.464L543.504 8.05Z" fill="#313842"/>
<path fill-rule="evenodd" clip-rule="evenodd" d="M652.011 10C652.011 7.79 650.219 6 648.007 6C644.689 6 642 3.314 642 0H644.002C644.002 2.21 645.794 4 648.007 4C651.325 4 654.014 6.686 654.014 10C654.014 12.21 655.806 14 658.018 14C661.336 14 664.025 16.686 664.025 20C664.025 22.21 665.817 24 668.03 24V26C664.712 26 662.023 23.314 662.023 20C662.023 17.79 660.231 16 658.018 16C654.7 16 652.011 13.314 652.011 10ZM677.504 8.05L686 16.536L684.584 17.95L676.089 9.464L677.504 8.05Z" fill="#313842"/>
<path fill-rule="evenodd" clip-rule="evenodd" d="M564.011 10C564.011 7.79 562.219 6 560.007 6C556.689 6 554 3.314 554 0H556.002C556.002 2.21 557.794 4 560.007 4C563.325 4 566.014 6.686 566.014 10C566.014 12.21 567.806 14 570.018 14C573.336 14 576.025 16.686 576.025 20C576.025 22.21 577.817 24 580.03 24V26C576.712 26 574.023 23.314 574.023 20C574.023 17.79 572.231 16 570.018 16C566.7 16 564.011 13.314 564.011 10ZM589.504 8.05L598 16.536L596.584 17.95L588.089 9.464L589.504 8.05Z" fill="#313842"/>
<path fill-rule="evenodd" clip-rule="evenodd" d="M698.011 10C698.011 7.79 696.219 6 694.007 6C690.689 6 688 3.314 688 0H690.002C690.002 2.21 691.794 4 694.007 4C697.325 4 700.014 6.686 700.014 10C700.014 12.21 701.806 14 704.018 14C707.336 14 710.025 16.686 710.025 20C710.025 22.21 711.817 24 714.03 24V26C710.712 26 708.023 23.314 708.023 20C708.023 17.79 706.231 16 704.018 16C700.7 16 698.011 13.314 698.011 10ZM723.504 8.05L732 16.536L730.584 17.95L722.089 9.464L723.504 8.05Z" fill="#313842"/>
<path fill-rule="evenodd" clip-rule="evenodd" d="M608.011 10C608.011 7.79 606.219 6 604.007 6C600.689 6 598 3.314 598 0H600.002C600.002 2.21 601.794 4 604.007 4C607.325 4 610.014 6.686 610.014 10C610.014 12.21 611.806 14 614.018 14C617.336 14 620.025 16.686 620.025 20C620.025 22.21 621.817 24 624.03 24V26C620.712 26 618.023 23.314 618.023 20C618.023 17.79 616.231 16 614.018 16C610.7 16 608.011 13.314 608.011 10ZM633.504 8.05L642 16.536L640.584 17.95L632.089 9.464L633.504 8.05Z" fill="#313842"/>
<path fill-rule="evenodd" clip-rule="evenodd" d="M742.011 10C742.011 7.79 740.219 6 738.007 6C734.689 6 732 3.314 732 0H734.002C734.002 2.21 735.794 4 738.007 4C741.325 4 744.014 6.686 744.014 10C744.014 12.21 745.806 14 748.018 14C751.336 14 754.025 16.686 754.025 20C754.025 22.21 755.817 24 758.03 24V26C754.712 26 752.023 23.314 752.023 20C752.023 17.79 750.231 16 748.018 16C744.7 16 742.011 13.314 742.011 10ZM767.504 8.05L776 16.536L774.584 17.95L766.089 9.464L767.504 8.05Z" fill="#313842"/>
<path fill-rule="evenodd" clip-rule="evenodd" d="M786.011 10C786.011 7.79 784.219 6 782.007 6C778.689 6 776 3.314 776 0H778.002C778.002 2.21 779.794 4 782.007 4C785.325 4 788.014 6.686 788.014 10C788.014 12.21 789.806 14 792.018 14C795.336 14 798.025 16.686 798.025 20C798.025 22.21 799.817 24 802.03 24V26C798.712 26 796.023 23.314 796.023 20C796.023 17.79 794.231 16 792.018 16C788.7 16 786.011 13.314 786.011 10ZM811.504 8.05L820 16.536L818.584 17.95L810.089 9.464L811.504 8.05Z" fill="#313842"/>
<path fill-rule="evenodd" clip-rule="evenodd" d="M830.011 10C830.011 7.79 828.219 6 826.007 6C822.689 6 820 3.314 820 0H822.002C822.002 2.21 823.794 4 826.007 4C829.325 4 832.014 6.686 832.014 10C832.014 12.21 833.806 14 836.018 14C839.336 14 842.025 16.686 842.025 20C842.025 22.21 843.817 24 846.03 24V26C842.712 26 840.023 23.314 840.023 20C840.023 17.79 838.231 16 836.018 16C832.7 16 830.011 13.314 830.011 10ZM855.504 8.05L864 16.536L862.584 17.95L854.089 9.464L855.504 8.05Z" fill="#313842"/>
<path fill-rule="evenodd" clip-rule="evenodd" d="M874.011 10C874.011 7.79 872.219 6 870.007 6C866.689 6 864 3.314 864 0H866.002C866.002 2.21 867.794 4 870.007 4C873.325 4 876.014 6.686 876.014 10C876.014 12.21 877.806 14 880.018 14C883.336 14 886.025 16.686 886.025 20C886.025 22.21 887.817 24 890.03 24V26C886.712 26 884.023 23.314 884.023 20C884.023 17.79 882.231 16 880.018 16C876.7 16 874.011 13.314 874.011 10ZM899.504 8.05L908 16.536L906.584 17.95L898.089 9.464L899.504 8.05Z" fill="#313842"/>
<path fill-rule="evenodd" clip-rule="evenodd" d="M918.011 10C918.011 7.79 916.219 6 914.007 6C910.689 6 908 3.314 908 0H910.002C910.002 2.21 911.794 4 914.007 4C917.325 4 920.014 6.686 920.014 10C920.014 12.21 921.806 14 924.018 14C927.336 14 930.025 16.686 930.025 20C930.025 22.21 931.817 24 934.03 24V26C930.712 26 928.023 23.314 928.023 20C928.023 17.79 926.231 16 924.018 16C920.7 16 918.011 13.314 918.011 10ZM943.504 8.05L952 16.536L950.584 17.95L942.089 9.464L943.504 8.05Z" fill="#313842"/>
<path fill-rule="evenodd" clip-rule="evenodd" d="M1052.01 10C1052.01 7.79 1050.22 6 1048.01 6C1044.69 6 1042 3.314 1042 0H1044C1044 2.21 1045.79 4 1048.01 4C1051.32 4 1054.01 6.686 1054.01 10C1054.01 12.21 1055.81 14 1058.02 14C1061.34 14 1064.02 16.686 1064.02 20C1064.02 22.21 1065.82 24 1068.03 24V26C1064.71 26 1062.02 23.314 1062.02 20C1062.02 17.79 1060.23 16 1058.02 16C1054.7 16 1052.01 13.314 1052.01 10ZM1077.5 8.05L1086 16.536L1084.58 17.95L1076.09 9.464L1077.5 8.05Z" fill="#313842"/>
<path fill-rule="evenodd" clip-rule="evenodd" d="M964.011 10C964.011 7.79 962.219 6 960.007 6C956.689 6 954 3.314 954 0H956.002C956.002 2.21 957.794 4 960.007 4C963.325 4 966.014 6.686 966.014 10C966.014 12.21 967.806 14 970.018 14C973.336 14 976.025 16.686 976.025 20C976.025 22.21 977.817 24 980.03 24V26C976.712 26 974.023 23.314 974.023 20C974.023 17.79 972.231 16 970.018 16C966.7 16 964.011 13.314 964.011 10ZM989.504 8.05L998 16.536L996.584 17.95L988.089 9.464L989.504 8.05Z" fill="#313842"/>
<path fill-rule="evenodd" clip-rule="evenodd" d="M1098.01 10C1098.01 7.79 1096.22 6 1094.01 6C1090.69 6 1088 3.314 1088 0H1090C1090 2.21 1091.79 4 1094.01 4C1097.32 4 1100.01 6.686 1100.01 10C1100.01 12.21 1101.81 14 1104.02 14C1107.34 14 1110.02 16.686 1110.02 20C1110.02 22.21 1111.82 24 1114.03 24V26C1110.71 26 1108.02 23.314 1108.02 20C1108.02 17.79 1106.23 16 1104.02 16C1100.7 16 1098.01 13.314 1098.01 10ZM1123.5 8.05L1132 16.536L1130.58 17.95L1122.09 9.464L1123.5 8.05Z" fill="#313842"/>
<path fill-rule="evenodd" clip-rule="evenodd" d="M1008.01 10C1008.01 7.79 1006.22 6 1004.01 6C1000.69 6 998 3.314 998 0H1000C1000 2.21 1001.79 4 1004.01 4C1007.32 4 1010.01 6.686 1010.01 10C1010.01 12.21 1011.81 14 1014.02 14C1017.34 14 1020.02 16.686 1020.02 20C1020.02 22.21 1021.82 24 1024.03 24V26C1020.71 26 1018.02 23.314 1018.02 20C1018.02 17.79 1016.23 16 1014.02 16C1010.7 16 1008.01 13.314 1008.01 10ZM1033.5 8.05L1042 16.536L1040.58 17.95L1032.09 9.464L1033.5 8.05Z" fill="#313842"/>
<path fill-rule="evenodd" clip-rule="evenodd" d="M1142.01 10C1142.01 7.79 1140.22 6 1138.01 6C1134.69 6 1132 3.314 1132 0H1134C1134 2.21 1135.79 4 1138.01 4C1141.32 4 1144.01 6.686 1144.01 10C1144.01 12.21 1145.81 14 1148.02 14C1151.34 14 1154.02 16.686 1154.02 20C1154.02 22.21 1155.82 24 1158.03 24V26C1154.71 26 1152.02 23.314 1152.02 20C1152.02 17.79 1150.23 16 1148.02 16C1144.7 16 1142.01 13.314 1142.01 10ZM1167.5 8.05L1176 16.536L1174.58 17.95L1166.09 9.464L1167.5 8.05Z" fill="#313842"/>
<path fill-rule="evenodd" clip-rule="evenodd" d="M1186.01 10C1186.01 7.79 1184.22 6 1182.01 6C1178.69 6 1176 3.314 1176 0H1178C1178 2.21 1179.79 4 1182.01 4C1185.32 4 1188.01 6.686 1188.01 10C1188.01 12.21 1189.81 14 1192.02 14C1195.34 14 1198.02 16.686 1198.02 20C1198.02 22.21 1199.82 24 1202.03 24V26C1198.71 26 1196.02 23.314 1196.02 20C1196.02 17.79 1194.23 16 1192.02 16C1188.7 16 1186.01 13.314 1186.01 10ZM1211.5 8.05L1220 16.536L1218.58 17.95L1210.09 9.464L1211.5 8.05Z" fill="#313842"/>
<path fill-rule="evenodd" clip-rule="evenodd" d="M1230.01 10C1230.01 7.79 1228.22 6 1226.01 6C1222.69 6 1220 3.314 1220 0H1222C1222 2.21 1223.79 4 1226.01 4C1229.32 4 1232.01 6.686 1232.01 10C1232.01 12.21 1233.81 14 1236.02 14C1239.34 14 1242.02 16.686 1242.02 20C1242.02 22.21 1243.82 24 1246.03 24V26C1242.71 26 1240.02 23.314 1240.02 20C1240.02 17.79 1238.23 16 1236.02 16C1232.7 16 1230.01 13.314 1230.01 10ZM1255.5 8.05L1264 16.536L1262.58 17.95L1254.09 9.464L1255.5 8.05Z" fill="#313842"/>
<path fill-rule="evenodd" clip-rule="evenodd" d="M1274.01 10C1274.01 7.79 1272.22 6 1270.01 6C1266.69 6 1264 3.314 1264 0H1266C1266 2.21 1267.79 4 1270.01 4C1273.32 4 1276.01 6.686 1276.01 10C1276.01 12.21 1277.81 14 1280.02 14C1283.34 14 1286.02 16.686 1286.02 20C1286.02 22.21 1287.82 24 1290.03 24V26C1286.71 26 1284.02 23.314 1284.02 20C1284.02 17.79 1282.23 16 1280.02 16C1276.7 16 1274.01 13.314 1274.01 10ZM1299.5 8.05L1308 16.536L1306.58 17.95L1298.09 9.464L1299.5 8.05Z" fill="#313842"/>
<path fill-rule="evenodd" clip-rule="evenodd" d="M1318.01 10C1318.01 7.79 1316.22 6 1314.01 6C1310.69 6 1308 3.314 1308 0H1310C1310 2.21 1311.79 4 1314.01 4C1317.32 4 1320.01 6.686 1320.01 10C1320.01 12.21 1321.81 14 1324.02 14C1327.34 14 1330.02 16.686 1330.02 20C1330.02 22.21 1331.82 24 1334.03 24V26C1330.71 26 1328.02 23.314 1328.02 20C1328.02 17.79 1326.23 16 1324.02 16C1320.7 16 1318.01 13.314 1318.01 10ZM1343.5 8.05L1352 16.536L1350.58 17.95L1342.09 9.464L1343.5 8.05Z" fill="#313842"/>
<path fill-rule="evenodd" clip-rule="evenodd" d="M1364.01 10C1364.01 7.79 1362.22 6 1360.01 6C1356.69 6 1354 3.314 1354 0H1356C1356 2.21 1357.79 4 1360.01 4C1363.32 4 1366.01 6.686 1366.01 10C1366.01 12.21 1367.81 14 1370.02 14C1373.34 14 1376.02 16.686 1376.02 20C1376.02 22.21 1377.82 24 1380.03 24V26C1376.71 26 1374.02 23.314 1374.02 20C1374.02 17.79 1372.23 16 1370.02 16C1366.7 16 1364.01 13.314 1364.01 10ZM1389.5 8.05L1398 16.536L1396.58 17.95L1388.09 9.464L1389.5 8.05Z" fill="#313842"/>
<path fill-rule="evenodd" clip-rule="evenodd" d="M1408.01 10C1408.01 7.79 1406.22 6 1404.01 6C1400.69 6 1398 3.314 1398 0H1400C1400 2.21 1401.79 4 1404.01 4C1407.32 4 1410.01 6.686 1410.01 10C1410.01 12.21 1411.81 14 1414.02 14C1417.34 14 1420.02 16.686 1420.02 20C1420.02 22.21 1421.82 24 1424.03 24V26C1420.71 26 1418.02 23.314 1418.02 20C1418.02 17.79 1416.23 16 1414.02 16C1410.7 16 1408.01 13.314 1408.01 10ZM1433.5 8.05L1442 16.536L1440.58 17.95L1432.09 9.464L1433.5 8.05Z" fill="#313842"/>
</svg>
